HIERARCHY
ROOT Hips
{
  OFFSET 0 0 0
  CHANNELS 6 Xposition Yposition Zposition Zrotation Yrotation Xrotation
  JOINT LeftThigh
  {
    OFFSET 8.409438 0 -5.917753
    CHANNELS 3 Zrotation Yrotation Xrotation
    JOINT LeftLeg
    {
      OFFSET 0 0 -42.358652
      CHANNELS 3 Zrotation Yrotation Xrotation
      JOINT LeftFoot
      {
        OFFSET 0 0 -39.357303
        CHANNELS 3 Zrotation Yrotation Xrotation
      }
    }
  }
  JOINT RightThigh
  {
    OFFSET -8.409438 0 -5.917753
    CHANNELS 3 Zrotation Yrotation Xrotation
    JOINT RightLeg
    {
      OFFSET 0 0 -42.358652
      CHANNELS 3 Zrotation Yrotation Xrotation
      JOINT RightFoot
      {
        OFFSET 0 0 -39.357303
        CHANNELS 3 Zrotation Yrotation Xrotation
      }
    }
  }
  JOINT SpineLow
  {
    OFFSET 0 0 4.719101
    CHANNELS 3 Zrotation Yrotation Xrotation
    JOINT SpineMid
    {
      OFFSET 0 0 12.899191
      CHANNELS 3 Zrotation Yrotation Xrotation
      JOINT Chest
      {
        OFFSET 0 0 12.899191
        CHANNELS 3 Zrotation Yrotation Xrotation
        JOINT LeftShoulder
        {
          OFFSET 7.550562 1.41573 9.438202
          CHANNELS 3 Zrotation Yrotation Xrotation
          JOINT LeftArm
          {
            OFFSET 9.155056 0 4.247191
            CHANNELS 3 Zrotation Yrotation Xrotation
            JOINT LeftForearm
            {
              OFFSET 0 0 25.771955
              CHANNELS 3 Zrotation Yrotation Xrotation
              JOINT LeftHand
              {
                OFFSET 0 0 25.197169
                CHANNELS 3 Zrotation Yrotation Xrotation
              }
            }
          }
        }
        JOINT RightShoulder
        {
          OFFSET -7.550562 1.41573 9.438202
          CHANNELS 3 Zrotation Yrotation Xrotation
          JOINT RightArm
          {
            OFFSET -9.155056 0 4.247191
            CHANNELS 3 Zrotation Yrotation Xrotation
            JOINT RightForearm
            {
              OFFSET 0 0 -25.771955
              CHANNELS 3 Zrotation Yrotation Xrotation
              JOINT RightHand
              {
                OFFSET 0 0 -25.197169
                CHANNELS 3 Zrotation Yrotation Xrotation
              }
            }
          }
        }
        JOINT Neck
        {
          OFFSET 0 0 15.101124
          CHANNELS 3 Zrotation Yrotation Xrotation
          JOINT Head
          {
            OFFSET 0 0 11.325843
            CHANNELS 3 Zrotation Yrotation Xrotation
            End Site
            {
              OFFSET 0 0 14.157303
            }
          }
        }
      }
    }
  }
}
MOTION
Frames: 11
Frame Time: 0.0
0.0  101.685394  0.0  -6.349567  9.584016  -128.59139  8.256467  -20.152528  3.679869  -13.524068  20.393735  44.80496  -0.990405  5.050532  -0.675496  14.32641  7.888468  -71.543909  -30.501013  18.261131  4.806339  -11.989607  -11.260828  15.147356  -1.594994  -0.616835  4.476758  -4.457138  -1.384087  12.273025  -4.457138  -1.384087  12.273025  5.265437  24.133127  29.997642  113.935597  43.865194  -176.785297  -24.190282  -3.509515  113.018646  87.199881  9.702568  -19.758274  4.192169  -4.608771  21.611087  38.088661  61.244795  -21.962799  -23.338367  -13.855302  -85.240714  56.997935  11.776848  16.716549  -12.68155  3.263371  11.754421  -9.575598  2.205677  8.885737  
0.0  101.685394  0.0  -5.628212  9.932241  -129.048615  7.557902  -18.940604  3.699619  -13.31155  21.315899  45.796206  0.400226  4.735342  -0.557873  10.626534  2.635032  -75.092473  -19.21575  19.932144  15.377664  -13.403191  -11.793093  15.85305  -1.650404  -0.56897  4.643066  -4.601589  -1.231841  12.724783  -4.601589  -1.231841  12.724784  4.660262  24.719636  28.537578  114.923668  43.604945  -176.920801  -24.419292  -3.796951  114.285354  87.968678  10.355731  -19.674208  4.262081  -4.294414  21.155154  38.519319  60.867044  -21.462744  -23.116193  -14.361797  -85.669341  56.851037  12.146356  16.846252  -12.920134  3.740595  10.810495  -9.756497  2.579225  8.188495  
0.0  101.685394  0.0  -4.909245  10.536206  -129.683261  7.133685  -17.185073  3.655164  -13.543643  21.605488  46.895152  2.244873  4.658618  -0.316945  6.225349  -3.942709  -76.662329  -4.924022  17.307274  25.009388  -16.883767  -11.571081  15.924654  -1.875756  -0.450704  4.751023  -5.193062  -0.858291  13.013119  -5.193062  -0.858291  13.013119  4.78531  25.438845  27.828314  116.661704  43.617721  -176.710139  -24.441205  -3.332249  115.55547  88.959328  10.481122  -19.60935  4.682091  -4.25482  21.578392  39.240736  61.147094  -21.072634  -22.763839  -14.961302  -86.075293  56.783527  12.411592  17.06014  -12.680997  4.29944  10.146997  -9.58088  3.016598  7.69995  
0.0  101.685394  0.0  -4.239617  10.491858  -129.370641  8.67092  -15.983954  2.706973  -14.443054  21.284304  47.779884  3.121181  4.577759  -0.261655  2.879167  -11.537145  -77.678266  7.502386  14.466457  31.225143  -19.260162  -10.881497  17.065527  -2.132656  -0.370785  4.54107  -5.875419  -0.609259  12.434494  -5.875419  -0.609259  12.434493  6.187968  26.357414  29.00387  118.956537  44.378377  -175.880027  -24.282812  -2.270801  116.675637  89.661632  10.121391  -19.634543  5.407696  -4.139252  23.348573  40.486254  61.735819  -20.48751  -22.584702  -15.426152  -86.324339  56.584752  12.631215  17.067523  -12.058573  5.066481  10.157601  -9.125379  3.602371  7.716968  
0.0  101.685394  0.0  -3.923581  10.133393  -129.304097  11.423404  -16.065161  2.313285  -15.586109  20.144455  48.457004  2.034084  4.604732  -0.623969  0.499704  -17.023556  -76.426752  13.381226  13.087165  35.370217  -17.34688  -9.989323  16.893106  -2.431842  -0.265282  4.372133  -6.670142  -0.283255  11.963631  -6.670142  -0.283255  11.963631  8.341476  27.078314  30.576953  121.176806  45.767967  -174.83179  -23.879801  -1.01432  117.432583  89.979738  9.477597  -20.041513  6.454156  -4.45727  25.066959  42.377158  62.397719  -19.331976  -21.490247  -16.702274  -87.018123  57.261399  13.207341  17.905241  -11.240496  5.504656  10.450753  -8.52118  3.93934  7.936698  
0.0  101.685394  0.0  -4.048627  9.719962  -129.01289  14.285403  -17.158043  1.95094  -16.40792  18.731389  48.500016  -0.406012  4.692221  -1.035043  -0.965202  -18.850555  -74.960963  14.034841  13.873734  38.897641  -13.676865  -10.059918  16.546554  -2.665678  -0.135727  4.308996  -7.28393  0.104341  11.776708  -7.28393  0.104341  11.776709  9.931335  27.219734  31.172695  122.859418  47.266983  -173.939545  -23.585364  0.248409  117.821118  90.334392  8.860418  -20.582204  7.170378  -5.302171  25.860636  44.487758  62.967729  -17.946449  -21.248778  -17.274391  -87.374233  57.023375  13.390902  17.939356  -10.752543  5.26866  10.687689  -8.154008  3.766305  8.105981  
0.0  101.685394  0.0  -4.474112  9.575946  -128.830036  15.631686  -18.342898  1.763878  -16.35037  18.006272  48.225753  -2.3375  4.636954  -1.295688  -0.909127  -20.429043  -74.896583  15.494107  16.175181  44.288544  -11.031476  -10.61553  15.908194  -2.818457  -0.042395  4.449625  -7.681874  0.401565  12.148664  -7.681875  0.401565  12.148664  10.321462  27.110503  30.342911  123.986698  48.55495  -173.091036  -23.47526  1.577169  117.876046  91.209227  8.462939  -21.056191  7.265746  -6.050407  25.296754  46.756083  63.221078  -16.217277  -20.721194  -17.946142  -87.921618  56.780404  13.614946  18.221479  -10.844328  4.645374  10.497384  -8.211576  3.300213  7.954255  
0.0  101.685394  0.0  -5.016144  9.522878  -128.917492  15.535682  -19.251581  1.741389  -15.410233  17.814246  48.24683  -3.313745  4.551608  -1.476426  -0.090606  -21.795754  -75.533869  16.807155  18.691477  50.395278  -8.878256  -10.668573  15.182509  -2.932888  -0.031026  4.673279  -7.988471  0.480351  12.756274  -7.988471  0.480351  12.756274  10.157438  27.209242  29.000558  124.85057  49.41536  -172.212042  -23.390851  2.606878  117.695463  92.607375  8.529393  -21.704555  7.032239  -6.246692  24.31808  49.18096  63.051626  -14.079357  -20.117802  -18.452941  -88.617325  56.299295  13.796357  18.461873  -11.231876  4.13598  10.158761  -8.491858  2.917444  7.694952  
0.0  101.685394  0.0  -5.381728  9.354538  -128.999242  15.45664  -20.159609  1.743821  -14.733386  18.235032  48.181344  -3.466505  4.506661  -1.652382  1.277718  -22.165917  -76.113746  16.861172  21.448466  55.877962  -7.036654  -10.274631  14.824179  -2.996074  -0.0873  4.652353  -8.171467  0.337024  12.705183  -8.171468  0.337024  12.705183  10.49406  27.453186  29.298464  125.641386  49.88024  -171.139862  -23.326325  2.900179  117.24657  94.085002  9.097033  -22.662124  6.36777  -5.822905  24.734019  51.765151  62.385828  -11.552577  -17.588454  -19.895179  -90.236164  57.164354  14.722137  20.1737  -11.720582  4.224458  10.539601  -8.862518  2.968593  7.985726  
0.0  101.685394  0.0  -5.539914  8.998405  -128.850469  15.819538  -20.906119  1.565771  -14.747498  19.147233  47.732809  -2.789914  4.403456  -1.676582  3.131958  -20.658043  -77.219901  15.430194  23.411417  61.308779  -6.379837  -9.392153  14.93913  -2.927231  -0.168745  4.570909  -8.000285  0.092694  12.493482  -8.000284  0.092694  12.493481  10.283746  27.479251  29.676828  126.414462  50.042906  -169.897601  -23.628404  2.111603  116.81423  94.916742  10.226294  -23.70947  5.065854  -5.30428  25.173561  54.389117  61.323892  -8.717734  -16.361407  -20.093456  -91.434522  56.627433  14.964895  20.433664  -12.513547  4.358357  10.931917  -9.462279  3.04764  8.288473  
0.0  101.685394  0.0  -5.648797  8.682481  -128.549092  17.205013  -21.968936  1.598822  -16.405079  20.472403  46.089007  -1.252882  4.44432  -1.361383  4.801841  -18.149289  -78.259267  13.403108  24.042394  66.719233  -7.121435  -8.043916  15.110358  -3.004373  -0.193349  4.488199  -8.215467  0.03011  12.270269  -8.215467  0.03011  12.270269  10.869661  27.362258  29.717279  127.251221  49.912131  -168.55542  -23.832442  0.789387  116.361451  95.498342  11.649235  -24.772784  4.788375  -4.845888  25.440597  56.769968  59.993907  -5.942958  -14.536899  -20.237424  -92.83783  56.330743  15.393719  20.873194  -12.722541  4.479601  11.148475  -9.622664  3.130504  8.454838  
